<svg xmlns="http://www.w3.org/2000/svg" width="1123" height="794" viewBox="0 0 1123 794" role="img" aria-labelledby="title desc">
  <title id="title">Figure 1. Weekly Learning Programme Overview</title>
  <desc id="desc">An improved ECD weekly learning programme overview for the theme My Body and Healthy Habits.</desc>
  <defs>
    <filter id="cardShadow" x="-10%" y="-10%" width="120%" height="120%">
      <feDropShadow dx="7" dy="10" stdDeviation="0" flood-color="#d8e5ed" flood-opacity="1"/>
    </filter>
    <style>
      .title { font-family: "Trebuchet MS", "Verdana", sans-serif; font-weight: 700; fill: #ffffff; }
      .heading { font-family: "Trebuchet MS", "Verdana", sans-serif; font-weight: 700; fill: #2a466f; }
      .subhead { font-family: "Trebuchet MS", "Verdana", sans-serif; font-weight: 700; fill: #2d7e88; }
      .body { font-family: "Trebuchet MS", "Verdana", sans-serif; font-weight: 400; fill: #30455f; }
      .body-bold { font-family: "Trebuchet MS", "Verdana", sans-serif; font-weight: 700; fill: #30455f; }
      .small { font-family: "Trebuchet MS", "Verdana", sans-serif; font-weight: 400; fill: #30455f; font-size: 13px; }
    </style>
  </defs>

  <rect width="1123" height="794" fill="#f7f3ec"/>
  <circle cx="48" cy="727" r="145" fill="#dcecf2"/>
  <circle cx="1086" cy="104" r="165" fill="#e4eef4"/>
  <circle cx="965" cy="756" r="128" fill="#edf3d7"/>
  <circle cx="109" cy="114" r="90" fill="#fff0c8"/>

  <rect x="44" y="34" width="1035" height="84" rx="28" fill="#314e79" filter="url(#cardShadow)"/>
  <rect x="56" y="117" width="1020" height="10" rx="5" fill="#2d7e88"/>
  <text x="72" y="86" class="title" font-size="34">Figure 1. Weekly Learning Programme Overview</text>
  <text x="72" y="115" font-family="Trebuchet MS, Verdana, sans-serif" font-size="18" fill="#dce8f0">Integrated literacy, numeracy, life skills, creative play and outdoor learning</text>

  <rect x="727" y="145" width="300" height="38" rx="16" fill="#e4f1ed"/>
  <text x="877" y="170" class="subhead" font-size="16" text-anchor="middle">Theme: My Body and Healthy Habits</text>

  <g filter="url(#cardShadow)">
    <rect x="44" y="170" width="262" height="522" rx="24" fill="#ffffff" stroke="#d9e7f2" stroke-width="2"/>
  </g>
  <text x="70" y="225" class="heading" font-size="28">Planning principles</text>

  <circle cx="76" cy="272" r="6" fill="#2d7e88"/>
  <text x="96" y="278" class="body" font-size="15">
    <tspan x="96" dy="0">Theme-based planning linked to</tspan>
    <tspan x="96" dy="19">children's interests and</tspan>
    <tspan x="96" dy="19">developmental level</tspan>
  </text>

  <circle cx="76" cy="358" r="6" fill="#2d7e88"/>
  <text x="96" y="364" class="body" font-size="15">
    <tspan x="96" dy="0">Daily balance of group time,</tspan>
    <tspan x="96" dy="19">free play, guided work, outdoor</tspan>
    <tspan x="96" dy="19">activity and routines</tspan>
  </text>

  <circle cx="76" cy="446" r="6" fill="#2d7e88"/>
  <text x="96" y="452" class="body" font-size="15">
    <tspan x="96" dy="0">Integration of language, early</tspan>
    <tspan x="96" dy="19">mathematics, creative arts,</tspan>
    <tspan x="96" dy="19">movement and life skills</tspan>
  </text>

  <circle cx="76" cy="532" r="6" fill="#2d7e88"/>
  <text x="96" y="538" class="body" font-size="15">
    <tspan x="96" dy="0">Differentiation for support,</tspan>
    <tspan x="96" dy="19">enrichment, multilingual</tspan>
    <tspan x="96" dy="19">participation and inclusion</tspan>
  </text>

  <circle cx="76" cy="618" r="6" fill="#2d7e88"/>
  <text x="96" y="624" class="body" font-size="15">
    <tspan x="96" dy="0">Observation notes used to</tspan>
    <tspan x="96" dy="19">adjust the next day's activities</tspan>
    <tspan x="96" dy="19">and resources</tspan>
  </text>

  <g filter="url(#cardShadow)">
    <rect x="326" y="170" width="753" height="586" rx="24" fill="#ffffff" stroke="#d9e7f2" stroke-width="2"/>
  </g>

  <rect x="344" y="212" width="164" height="58" rx="15" fill="#d6e3f2" stroke="#b8cde1"/>
  <rect x="508" y="212" width="111" height="58" rx="15" fill="#e5f1ed" stroke="#b8d8d0"/>
  <rect x="619" y="212" width="111" height="58" rx="15" fill="#e5f1ed" stroke="#b8d8d0"/>
  <rect x="730" y="212" width="111" height="58" rx="15" fill="#e5f1ed" stroke="#b8d8d0"/>
  <rect x="841" y="212" width="111" height="58" rx="15" fill="#e5f1ed" stroke="#b8d8d0"/>
  <rect x="952" y="212" width="111" height="58" rx="15" fill="#e5f1ed" stroke="#b8d8d0"/>

  <text x="426" y="234" class="heading" font-size="18" text-anchor="middle">
    <tspan x="426" dy="0">Learning</tspan>
    <tspan x="426" dy="21">area /</tspan>
    <tspan x="426" dy="21">evidence</tspan>
  </text>
  <text x="563.5" y="249" class="heading" font-size="17" text-anchor="middle">Monday</text>
  <text x="674.5" y="249" class="heading" font-size="17" text-anchor="middle">Tuesday</text>
  <text x="785.5" y="249" class="heading" font-size="17" text-anchor="middle">Wednesday</text>
  <text x="896.5" y="249" class="heading" font-size="17" text-anchor="middle">Thursday</text>
  <text x="1007.5" y="249" class="heading" font-size="17" text-anchor="middle">Friday</text>

  <rect x="344" y="271" width="164" height="72" rx="15" fill="#fff6e6" stroke="#ead8bf"/>
  <rect x="508" y="271" width="111" height="72" rx="15" fill="#ffffff" stroke="#d3e1ec"/>
  <rect x="619" y="271" width="111" height="72" rx="15" fill="#ffffff" stroke="#d3e1ec"/>
  <rect x="730" y="271" width="111" height="72" rx="15" fill="#ffffff" stroke="#d3e1ec"/>
  <rect x="841" y="271" width="111" height="72" rx="15" fill="#ffffff" stroke="#d3e1ec"/>
  <rect x="952" y="271" width="111" height="72" rx="15" fill="#ffffff" stroke="#d3e1ec"/>
  <text x="426" y="318" class="heading" font-size="18" text-anchor="middle">Theme focus</text>
  <text x="563.5" y="294" class="body" font-size="12" text-anchor="middle">
    <tspan x="563.5" dy="0">My body:</tspan>
    <tspan x="563.5" dy="15">naming</tspan>
    <tspan x="563.5" dy="15">body parts</tspan>
  </text>
  <text x="674.5" y="294" class="body" font-size="12" text-anchor="middle">
    <tspan x="674.5" dy="0">Healthy habits</tspan>
    <tspan x="674.5" dy="15">and</tspan>
    <tspan x="674.5" dy="15">handwashing</tspan>
  </text>
  <text x="785.5" y="301" class="body" font-size="12" text-anchor="middle">
    <tspan x="785.5" dy="0">Feelings and</tspan>
    <tspan x="785.5" dy="15">self-awareness</tspan>
  </text>
  <text x="896.5" y="301" class="body" font-size="12" text-anchor="middle">
    <tspan x="896.5" dy="0">Movement and</tspan>
    <tspan x="896.5" dy="15">balance</tspan>
  </text>
  <text x="1007.5" y="290" class="body" font-size="12" text-anchor="middle">
    <tspan x="1007.5" dy="0">Review,</tspan>
    <tspan x="1007.5" dy="15">consolidation</tspan>
    <tspan x="1007.5" dy="15">and</tspan>
    <tspan x="1007.5" dy="15">family link</tspan>
  </text>

  <rect x="344" y="345" width="164" height="94" rx="15" fill="#fff6e6" stroke="#ead8bf"/>
  <rect x="508" y="345" width="111" height="94" rx="15" fill="#fcfeff" stroke="#d3e1ec"/>
  <rect x="619" y="345" width="111" height="94" rx="15" fill="#fcfeff" stroke="#d3e1ec"/>
  <rect x="730" y="345" width="111" height="94" rx="15" fill="#fcfeff" stroke="#d3e1ec"/>
  <rect x="841" y="345" width="111" height="94" rx="15" fill="#fcfeff" stroke="#d3e1ec"/>
  <rect x="952" y="345" width="111" height="94" rx="15" fill="#fcfeff" stroke="#d3e1ec"/>
  <text x="426" y="401" class="heading" font-size="18" text-anchor="middle">Literacy</text>
  <text x="563.5" y="366" class="body" font-size="11" text-anchor="middle">
    <tspan x="563.5" dy="0">Story: Head,</tspan>
    <tspan x="563.5" dy="14">Shoulders, Knees</tspan>
    <tspan x="563.5" dy="14">and Toes;</tspan>
    <tspan x="563.5" dy="14">vocabulary chart</tspan>
  </text>
  <text x="674.5" y="374" class="body" font-size="11" text-anchor="middle">
    <tspan x="674.5" dy="0">Sequencing</tspan>
    <tspan x="674.5" dy="14">cards: washing</tspan>
    <tspan x="674.5" dy="14">hands</tspan>
  </text>
  <text x="785.5" y="374" class="body" font-size="11" text-anchor="middle">
    <tspan x="785.5" dy="0">Emotion</tspan>
    <tspan x="785.5" dy="14">words;</tspan>
    <tspan x="785.5" dy="14">oral discussion</tspan>
  </text>
  <text x="896.5" y="374" class="body" font-size="11" text-anchor="middle">
    <tspan x="896.5" dy="0">Action words</tspan>
    <tspan x="896.5" dy="14">and</tspan>
    <tspan x="896.5" dy="14">rhyme</tspan>
  </text>
  <text x="1007.5" y="366" class="body" font-size="11" text-anchor="middle">
    <tspan x="1007.5" dy="0">Draw-and-tell</tspan>
    <tspan x="1007.5" dy="14">about my</tspan>
    <tspan x="1007.5" dy="14">body</tspan>
  </text>

  <rect x="344" y="441" width="164" height="82" rx="15" fill="#fff6e6" stroke="#ead8bf"/>
  <rect x="508" y="441" width="111" height="82" rx="15" fill="#ffffff" stroke="#d3e1ec"/>
  <rect x="619" y="441" width="111" height="82" rx="15" fill="#ffffff" stroke="#d3e1ec"/>
  <rect x="730" y="441" width="111" height="82" rx="15" fill="#ffffff" stroke="#d3e1ec"/>
  <rect x="841" y="441" width="111" height="82" rx="15" fill="#ffffff" stroke="#d3e1ec"/>
  <rect x="952" y="441" width="111" height="82" rx="15" fill="#ffffff" stroke="#d3e1ec"/>
  <text x="426" y="494" class="heading" font-size="18" text-anchor="middle">Numeracy</text>
  <text x="563.5" y="466" class="body" font-size="11" text-anchor="middle">
    <tspan x="563.5" dy="0">Count body</tspan>
    <tspan x="563.5" dy="14">parts</tspan>
    <tspan x="563.5" dy="14">in pairs</tspan>
  </text>
  <text x="674.5" y="466" class="body" font-size="11" text-anchor="middle">
    <tspan x="674.5" dy="0">Sequence 1-5</tspan>
    <tspan x="674.5" dy="14">handwashing</tspan>
    <tspan x="674.5" dy="14">steps</tspan>
  </text>
  <text x="785.5" y="466" class="body" font-size="11" text-anchor="middle">
    <tspan x="785.5" dy="0">Sort healthy /</tspan>
    <tspan x="785.5" dy="14">unhealthy</tspan>
    <tspan x="785.5" dy="14">pictures</tspan>
  </text>
  <text x="896.5" y="466" class="body" font-size="11" text-anchor="middle">
    <tspan x="896.5" dy="0">Measure</tspan>
    <tspan x="896.5" dy="14">jumps</tspan>
    <tspan x="896.5" dy="14">and compare</tspan>
  </text>
  <text x="1007.5" y="458" class="body" font-size="11" text-anchor="middle">
    <tspan x="1007.5" dy="0">Revision game:</tspan>
    <tspan x="1007.5" dy="14">match numerals</tspan>
    <tspan x="1007.5" dy="14">to body</tspan>
    <tspan x="1007.5" dy="14">pictures</tspan>
  </text>

  <rect x="344" y="525" width="164" height="82" rx="15" fill="#fff6e6" stroke="#ead8bf"/>
  <rect x="508" y="525" width="111" height="82" rx="15" fill="#fcfeff" stroke="#d3e1ec"/>
  <rect x="619" y="525" width="111" height="82" rx="15" fill="#fcfeff" stroke="#d3e1ec"/>
  <rect x="730" y="525" width="111" height="82" rx="15" fill="#fcfeff" stroke="#d3e1ec"/>
  <rect x="841" y="525" width="111" height="82" rx="15" fill="#fcfeff" stroke="#d3e1ec"/>
  <rect x="952" y="525" width="111" height="82" rx="15" fill="#fcfeff" stroke="#d3e1ec"/>
  <text x="426" y="563" class="heading" font-size="18" text-anchor="middle">
    <tspan x="426" dy="0">Life skills /</tspan>
    <tspan x="426" dy="20">creative arts</tspan>
  </text>
  <text x="563.5" y="558" class="body" font-size="11" text-anchor="middle">
    <tspan x="563.5" dy="0">Self-portrait</tspan>
    <tspan x="563.5" dy="14">drawing</tspan>
  </text>
  <text x="674.5" y="551" class="body" font-size="11" text-anchor="middle">
    <tspan x="674.5" dy="0">Poster: clean</tspan>
    <tspan x="674.5" dy="14">hands</tspan>
  </text>
  <text x="785.5" y="551" class="body" font-size="11" text-anchor="middle">
    <tspan x="785.5" dy="0">Feelings faces</tspan>
    <tspan x="785.5" dy="14">collage</tspan>
  </text>
  <text x="896.5" y="544" class="body" font-size="11" text-anchor="middle">
    <tspan x="896.5" dy="0">Obstacle</tspan>
    <tspan x="896.5" dy="14">course and safety</tspan>
    <tspan x="896.5" dy="14">rules</tspan>
  </text>
  <text x="1007.5" y="544" class="body" font-size="11" text-anchor="middle">
    <tspan x="1007.5" dy="0">Health talk</tspan>
    <tspan x="1007.5" dy="14">and classroom</tspan>
    <tspan x="1007.5" dy="14">display</tspan>
  </text>

  <rect x="344" y="609" width="164" height="82" rx="15" fill="#fff6e6" stroke="#ead8bf"/>
  <rect x="508" y="609" width="111" height="82" rx="15" fill="#ffffff" stroke="#d3e1ec"/>
  <rect x="619" y="609" width="111" height="82" rx="15" fill="#ffffff" stroke="#d3e1ec"/>
  <rect x="730" y="609" width="111" height="82" rx="15" fill="#ffffff" stroke="#d3e1ec"/>
  <rect x="841" y="609" width="111" height="82" rx="15" fill="#ffffff" stroke="#d3e1ec"/>
  <rect x="952" y="609" width="111" height="82" rx="15" fill="#ffffff" stroke="#d3e1ec"/>
  <text x="426" y="646" class="heading" font-size="18" text-anchor="middle">
    <tspan x="426" dy="0">Outdoor /</tspan>
    <tspan x="426" dy="20">movement</tspan>
  </text>
  <text x="563.5" y="642" class="body" font-size="11" text-anchor="middle">
    <tspan x="563.5" dy="0">Action song</tspan>
    <tspan x="563.5" dy="14">and</tspan>
    <tspan x="563.5" dy="14">stretching</tspan>
  </text>
  <text x="674.5" y="642" class="body" font-size="11" text-anchor="middle">
    <tspan x="674.5" dy="0">Relay: collect</tspan>
    <tspan x="674.5" dy="14">hygiene items</tspan>
  </text>
  <text x="785.5" y="642" class="body" font-size="11" text-anchor="middle">
    <tspan x="785.5" dy="0">Ball game:</tspan>
    <tspan x="785.5" dy="14">feelings</tspan>
    <tspan x="785.5" dy="14">sharing</tspan>
  </text>
  <text x="896.5" y="642" class="body" font-size="11" text-anchor="middle">
    <tspan x="896.5" dy="0">Balance walk</tspan>
    <tspan x="896.5" dy="14">and</tspan>
    <tspan x="896.5" dy="14">hop count</tspan>
  </text>
  <text x="1007.5" y="642" class="body" font-size="11" text-anchor="middle">
    <tspan x="1007.5" dy="0">Free play</tspan>
    <tspan x="1007.5" dy="14">choice</tspan>
    <tspan x="1007.5" dy="14">stations</tspan>
  </text>

  <rect x="344" y="693" width="164" height="55" rx="15" fill="#fff6e6" stroke="#ead8bf"/>
  <rect x="508" y="693" width="111" height="55" rx="15" fill="#fcfeff" stroke="#d3e1ec"/>
  <rect x="619" y="693" width="111" height="55" rx="15" fill="#fcfeff" stroke="#d3e1ec"/>
  <rect x="730" y="693" width="111" height="55" rx="15" fill="#fcfeff" stroke="#d3e1ec"/>
  <rect x="841" y="693" width="111" height="55" rx="15" fill="#fcfeff" stroke="#d3e1ec"/>
  <rect x="952" y="693" width="111" height="55" rx="15" fill="#fcfeff" stroke="#d3e1ec"/>
  <text x="426" y="720" class="heading" font-size="18" text-anchor="middle">
    <tspan x="426" dy="0">Observation /</tspan>
    <tspan x="426" dy="20">next step</tspan>
  </text>
  <text x="563.5" y="711" class="body" font-size="10.5" text-anchor="middle">
    <tspan x="563.5" dy="0">Baseline notes</tspan>
    <tspan x="563.5" dy="13">on vocabulary</tspan>
  </text>
  <text x="674.5" y="704" class="body" font-size="10.5" text-anchor="middle">
    <tspan x="674.5" dy="0">Who needs</tspan>
    <tspan x="674.5" dy="13">support with</tspan>
    <tspan x="674.5" dy="13">sequencing?</tspan>
  </text>
  <text x="785.5" y="704" class="body" font-size="10.5" text-anchor="middle">
    <tspan x="785.5" dy="0">Who can name</tspan>
    <tspan x="785.5" dy="13">feelings</tspan>
    <tspan x="785.5" dy="13">confidently?</tspan>
  </text>
  <text x="896.5" y="711" class="body" font-size="10.5" text-anchor="middle">
    <tspan x="896.5" dy="0">Motor</tspan>
    <tspan x="896.5" dy="13">coordination notes</tspan>
  </text>
  <text x="1007.5" y="698" class="body" font-size="10.5" text-anchor="middle">
    <tspan x="1007.5" dy="0">Plan follow-up</tspan>
    <tspan x="1007.5" dy="13">for children</tspan>
    <tspan x="1007.5" dy="13">needing extra</tspan>
    <tspan x="1007.5" dy="13">support</tspan>
  </text>
</svg>
